<?xml version="1.0" standalone="no"?>
<!DOCTYPE svg PUBLIC "-//W3C//DTD SVG 20010904//EN"
 "http://www.w3.org/TR/2001/REC-SVG-20010904/DTD/svg10.dtd">
<svg version="1.0" xmlns="http://www.w3.org/2000/svg"
 width="792.000000pt" height="792.000000pt" viewBox="0 0 792.000000 792.000000"
 preserveAspectRatio="xMidYMid meet">
<metadata>
Created by potrace 1.14, written by Peter Selinger 2001-2017
</metadata>
<g transform="translate(0.000000,792.000000) scale(0.100000,-0.100000)"
fill="#000000" stroke="none">
<path d="M1400 7913 c-169 -26 -294 -65 -433 -134 -93 -46 -100 -48 -130 -36
-37 15 -101 6 -127 -18 -13 -12 -23 -13 -48 -4 -18 6 -39 8 -47 5 -9 -3 -47 2
-85 11 l-70 17 -57 -57 -57 -57 23 -70 c12 -39 19 -76 14 -83 -9 -15 -4 -58 9
-74 7 -8 5 -19 -6 -35 -20 -28 -21 -94 -2 -130 13 -25 12 -32 -11 -79 -46 -97
-73 -181 -109 -344 -13 -63 -13 -339 1 -420 26 -151 67 -274 132 -399 36 -68
37 -73 25 -110 -15 -46 -7 -98 18 -121 15 -14 16 -20 5 -53 -9 -25 -10 -43 -3
-55 5 -10 6 -27 2 -39 -3 -11 -7 -26 -8 -32 -1 -6 -6 -25 -10 -43 -6 -25 -3
-36 12 -50 10 -10 37 -35 58 -55 l39 -37 59 20 c44 14 67 17 92 10 24 -7 38
-5 53 5 18 13 24 13 50 -1 36 -18 87 -19 121 -2 22 12 33 9 95 -18 188 -85
350 -120 555 -119 215 0 377 37 560 127 95 46 112 51 175 51 l70 1 79 -75
c112 -107 147 -139 296 -280 73 -69 151 -143 175 -165 39 -37 242 -229 360
-340 28 -25 111 -104 185 -174 74 -71 153 -145 175 -166 126 -117 293 -275
324 -305 40 -38 278 -263 405 -382 l79 -75 -68 -72 c-158 -166 -147 -147 -140
-222 3 -37 7 -75 9 -85 2 -11 7 -53 11 -94 4 -41 9 -82 10 -90 2 -8 6 -49 10
-90 4 -41 9 -78 12 -82 3 -7 -8 -11 -27 -10 -27 1 -186 14 -203 17 -23 4 -82
10 -197 20 l-65 6 -70 -73 c-38 -40 -107 -112 -153 -159 l-83 -87 78 -75 c43
-41 98 -94 123 -117 25 -23 77 -72 115 -108 172 -163 416 -393 489 -462 44
-41 99 -93 122 -115 23 -22 71 -68 108 -102 l66 -62 138 63 c75 34 155 71 177
80 22 10 47 21 56 26 68 35 352 160 356 157 2 -3 0 -13 -6 -24 -10 -17 -151
-360 -151 -367 0 -2 -8 -21 -17 -42 -9 -22 -40 -97 -69 -169 l-53 -130 72 -68
c40 -38 128 -121 196 -185 68 -65 138 -130 156 -147 45 -43 313 -296 361 -342
23 -21 103 -96 178 -168 76 -72 144 -133 151 -137 9 -5 23 4 41 25 15 17 78
85 140 151 67 70 111 125 109 135 -1 9 -6 50 -9 91 -4 41 -9 93 -12 115 -9 82
-26 256 -26 275 -1 26 5 29 40 26 20 -3 75 -7 122 -11 47 -3 110 -8 140 -10
30 -3 88 -7 129 -10 l73 -4 92 95 c50 53 95 102 99 110 14 24 31 16 98 -47
128 -121 142 -131 211 -136 45 -3 74 0 101 12 47 20 143 117 168 170 22 47 24
123 5 168 -16 39 -79 102 -396 398 -19 17 -71 66 -115 108 -44 42 -152 144
-239 226 -88 83 -187 176 -220 208 -34 32 -86 81 -116 109 -30 28 -96 90 -146
137 -154 146 -387 367 -424 401 -72 67 -318 298 -410 386 -52 50 -107 102
-121 115 -22 20 -155 145 -344 324 -40 38 -272 257 -359 339 -23 21 -102 96
-176 166 -74 70 -157 149 -185 175 -27 26 -104 98 -170 160 -66 62 -138 130
-161 152 -22 21 -109 103 -194 183 -84 80 -164 156 -179 169 -14 13 -88 83
-165 155 -76 72 -159 151 -185 175 -25 24 -80 75 -122 115 -41 39 -147 139
-235 222 -314 297 -285 265 -276 299 5 17 5 47 0 67 -7 32 -3 48 27 110 80
170 117 337 119 528 2 242 -33 398 -136 604 -44 90 -48 102 -37 128 15 36 6
104 -17 129 -13 15 -15 24 -7 42 6 12 9 31 7 42 -2 11 1 38 7 60 5 22 12 51
15 65 2 14 7 32 9 40 3 10 -17 37 -51 70 l-56 54 -66 -18 c-37 -10 -85 -19
-107 -20 -22 -1 -49 -7 -59 -13 -15 -8 -25 -8 -40 2 -32 21 -77 24 -116 8 -34
-13 -40 -12 -110 21 -93 42 -220 81 -325 99 -73 13 -316 19 -375 10z m169
-244 c84 -28 145 -101 187 -225 54 -161 26 -369 -65 -473 -24 -28 -36 -80 -26
-118 10 -41 96 -120 139 -128 38 -8 41 -6 147 67 192 132 521 100 638 -62 103
-142 -7 -312 -236 -366 -132 -31 -305 -4 -395 61 -81 59 -116 70 -164 50 -44
-18 -72 -43 -101 -93 -30 -51 -28 -67 29 -166 62 -107 66 -117 83 -184 53
-206 -8 -420 -141 -498 -141 -83 -299 32 -350 253 -37 158 -8 311 81 427 38
50 53 103 41 150 -8 32 -74 99 -116 116 -41 17 -91 1 -136 -45 -81 -83 -204
-126 -353 -122 -163 5 -289 64 -347 163 -101 171 94 358 371 358 102 -1 206
-27 265 -67 49 -33 120 -59 150 -53 14 2 30 5 35 5 15 2 77 59 97 89 20 30 23
83 8 112 -6 11 -22 32 -36 47 -124 133 -151 409 -57 573 66 115 155 161 252
129z m483 -110 c141 -72 277 -190 373 -324 46 -64 99 -155 93 -160 -2 -1 -46
5 -98 14 -119 21 -276 19 -403 -5 -15 -3 -17 2 -11 33 15 79 6 287 -16 362 -5
17 -7 31 -5 31 2 0 -2 19 -10 41 -8 23 -15 43 -15 45 0 5 44 -12 92 -37z
m-996 -17 c-23 -37 -30 -317 -11 -417 7 -38 12 -71 10 -73 -1 -2 -32 1 -68 6
-108 14 -264 6 -361 -19 -21 -6 -40 -8 -43 -5 -8 8 53 122 105 196 63 90 187
211 278 270 72 47 102 61 90 42z m1439 -1441 c-18 -33 -47 -80 -64 -105 -56
-81 -203 -222 -293 -280 -79 -52 -117 -69 -104 -47 17 27 25 274 12 352 -3 19
-9 53 -12 77 l-7 42 34 -7 c61 -14 319 -7 384 10 33 8 65 16 72 16 7 1 -3 -26
-22 -58z m-1420 -143 c0 -152 6 -223 24 -286 l10 -33 -57 32 c-170 95 -314
232 -411 392 l-24 39 34 -7 c65 -12 294 -12 359 0 36 7 65 13 65 14 1 0 1 -68
0 -151z m3478 -2560 c34 -33 268 -255 358 -339 26 -24 109 -102 185 -174 75
-71 156 -147 178 -168 23 -22 98 -93 169 -159 l127 -121 -38 -22 c-21 -12 -87
-48 -147 -80 -61 -32 -138 -73 -173 -92 l-64 -35 -26 24 c-14 12 -48 44 -76
70 l-51 47 55 24 c30 13 92 39 137 58 46 19 83 37 83 40 0 3 -33 37 -73 75
-201 190 -404 381 -423 399 -12 11 -47 45 -78 75 l-57 55 6 -65 c3 -36 7 -94
10 -130 3 -36 7 -85 10 -110 5 -49 11 -121 21 -245 3 -44 7 -84 8 -90 1 -10
-19 -11 -436 -16 -131 -1 -238 -5 -238 -9 0 -3 51 -54 113 -112 61 -58 133
-125 158 -150 35 -33 51 -42 65 -37 34 13 389 128 406 131 14 3 156 -118 147
-126 -2 -2 -53 -25 -114 -51 -60 -26 -137 -60 -170 -75 -205 -93 -257 -112
-275 -104 -10 5 -61 50 -112 99 -52 50 -164 155 -248 235 -85 80 -191 181
-237 225 l-83 80 78 84 78 83 45 -6 c24 -3 85 -8 134 -11 50 -3 108 -8 130
-10 22 -2 92 -7 155 -11 63 -3 119 -9 124 -11 16 -11 22 19 15 75 -8 62 -18
154 -25 217 -2 22 -6 62 -10 88 -3 27 -7 67 -9 90 -3 23 -7 67 -10 97 l-6 55
73 82 c40 45 74 82 75 83 2 0 18 -15 36 -32z m1212 -1139 c81 -78 77 -64 40
-154 -7 -16 -76 -199 -155 -405 -78 -206 -148 -388 -155 -405 -7 -16 -41 -104
-75 -195 -34 -91 -65 -168 -69 -172 -3 -3 -44 29 -90 73 l-83 79 95 253 c53
138 101 266 108 282 7 17 13 35 15 40 3 10 126 327 139 358 4 9 5 17 1 17 -6
0 -192 -85 -381 -175 -55 -26 -127 -60 -160 -75 -33 -15 -129 -60 -214 -99
-85 -39 -157 -70 -161 -69 -4 2 -47 40 -95 85 l-87 82 34 14 c27 12 274 123
403 182 83 38 273 123 380 170 66 29 149 66 185 82 36 17 94 43 130 58 36 16
69 32 75 37 22 19 52 4 120 -63z m208 -201 c28 -28 221 -210 357 -338 21 -19
71 -66 111 -105 41 -38 139 -131 218 -205 79 -74 188 -178 242 -230 l99 -95
-75 -79 -75 -78 -128 6 c-70 4 -145 9 -167 11 -22 2 -92 7 -155 11 -63 3 -130
7 -148 8 l-32 2 6 -53 c3 -30 7 -64 10 -76 2 -12 7 -51 10 -87 3 -36 7 -72 9
-80 2 -8 7 -46 11 -85 3 -38 8 -79 10 -90 2 -11 7 -54 10 -95 l5 -75 -76 -78
c-42 -42 -79 -77 -81 -77 -3 0 -45 37 -92 83 -48 46 -130 123 -182 172 -52 49
-102 96 -111 105 -9 8 -84 80 -168 159 -99 94 -148 147 -143 155 5 6 28 58 51
116 65 159 53 150 123 83 33 -32 67 -64 74 -72 16 -14 12 -35 -14 -86 l-15
-29 154 -148 c85 -82 167 -158 182 -169 l28 -21 -6 44 c-3 23 -7 87 -10 140
-2 53 -7 125 -9 160 -15 183 -20 291 -17 323 1 6 104 10 289 9 158 0 299 1
315 4 l27 5 -22 19 c-13 11 -59 54 -103 96 -93 89 -329 311 -430 406 l-70 65
-22 -62 c-11 -34 -49 -141 -83 -237 -34 -96 -76 -218 -95 -270 -56 -162 -41
-153 -123 -74 l-71 69 160 415 c88 228 165 425 170 438 4 12 11 22 14 22 2 0
20 -15 38 -32z"/>
</g>
</svg>
